# xmcd CD database file
#
# Track frame offsets:
#       150
#       18004
#       26859
#       43964
#       61069
#       76675
#       91080
#       104886
#
# Disc length: 1612 seconds
#
# Revision: 0
# Processed by: cddbd v1.5.2PL0 Copyright (c) Steve Scherf et al.
# Submitted via: jack 3.1.1
#
DISCID=5a064a08
DTITLE=Umse - Smart und Weise
DYEAR=2006
DGENRE=Rap
TTITLE0=Smart und Weise
TTITLE1=ABC
TTITLE2=Kopfsache
TTITLE3=Geh meinen Weg
TTITLE4=Allein sein
TTITLE5=Was w‰re wenn
TTITLE6=Ich bin ich
TTITLE7=Weiﬂt du noch...?
EXTD=
EXTT0=
EXTT1=
EXTT2=
EXTT3=
EXTT4=
EXTT5=
EXTT6=
EXTT7=
PLAYORDER=
